{"accessors" : [{"bufferView" : 0, "byteOffset" : 0, "componentType" : 5123, "count" : 336, "type" : "SCALAR", "max" : [270], "min" : [0]}, {"bufferView" : 1, "byteOffset" : 0, "componentType" : 5126, "count" : 271, "type" : "VEC3", "max" : [-0.14444799721240997, 0.7765510082244873, 0.09979400038719177], "min" : [-0.19372299313545227, 0.6869620084762573, -0.09979300200939178], "name" : "POSITION"}, {"bufferView" : 1, "byteOffset" : 12, "componentType" : 5126, "count" : 271, "type" : "VEC2", "max" : [0.07210200279951096, 0.12716099619865417], "min" : [-1.0533699989318848, -1.132040023803711], "name" : "TEXCOORD_0"}, {"bufferView" : 0, "byteOffset" : 672, "componentType" : 5123, "count" : 234, "type" : "SCALAR", "max" : [203], "min" : [0]}, {"bufferView" : 2, "byteOffset" : 0, "componentType" : 5126, "count" : 204, "type" : "VEC3", "max" : [-0.1374330073595047, 0.47740501165390015, 0.09091199934482574], "min" : [-0.285878986120224, 0.1857070028781891, -0.09091199934482574], "name" : "POSITION"}, {"bufferView" : 2, "byteOffset" : 12, "componentType" : 5126, "count" : 204, "type" : "VEC2", "max" : [0.9494490027427673, -0.05946199968457222], "min" : [0.029419999569654465, -0.9668440222740173], "name" : "TEXCOORD_0"}, {"bufferView" : 0, "byteOffset" : 1140, "componentType" : 5123, "count" : 636, "type" : "SCALAR", "max" : [557], "min" : [0]}, {"bufferView" : 3, "byteOffset" : 0, "componentType" : 5126, "count" : 558, "type" : "VEC3", "max" : [0.09802299737930298, -0.959318995475769, 0.17305800318717957], "min" : [-0.16576500236988068, -1.166213035583496, -0.17305800318717957], "name" : "POSITION"}, {"bufferView" : 3, "byteOffset" : 12, "componentType" : 5126, "count" : 558, "type" : "VEC2", "max" : [0.9764580130577087, -0.029812000691890717], "min" : [0.04616999998688698, -0.9725890159606934], "name" : "TEXCOORD_0"}, {"bufferView" : 0, "byteOffset" : 2412, "componentType" : 5123, "count" : 14922, "type" : "SCALAR", "max" : [12469], "min" : [0]}, {"bufferView" : 4, "byteOffset" : 0, "componentType" : 5126, "count" : 12470, "type" : "VEC3", "max" : [0.285878986120224, 1.25, 0.9480249881744385], "min" : [-0.27778899669647217, -1.25, -0.9480249881744385], "name" : "POSITION"}, {"bufferView" : 4, "byteOffset" : 12, "componentType" : 5126, "count" : 12470, "type" : "VEC2", "max" : [0.989861011505127, -0.003585000056773424], "min" : [0.0035880000796169043, -0.9959710240364075], "name" : "TEXCOORD_0"}], "asset" : {"generator" : "Aspose.3D 23.2", "version" : "2.0"}, "buffers" : [{"uri" : "data:application/octet-stream;base64,", "byteLength" : 354836}], "bufferViews" : [{"buffer" : 0, "byteOffset" : 0, "byteLength" : 32256, "target" : 34963}, {"buffer" : 0, "byteOffset" : 32260, "byteLength" : 6720, "byteStride" : 20, "target" : 34962}, {"buffer" : 0, "byteOffset" : 38984, "byteLength" : 4680, "byteStride" : 20, "target" : 34962}, {"buffer" : 0, "byteOffset" : 43668, "byteLength" : 12720, "byteStride" : 20, "target" : 34962}, {"buffer" : 0, "byteOffset" : 56392, "byteLength" : 298440, "byteStride" : 20, "target" : 34962}], "images" : [{"uri" : "data:image/png;base64,"}, {"uri" : "data:image/png;base64,"}, {"uri" : "data:image/png;base64,"}, {"uri" : "data:image/png;base64,"}], "materials" : [{"name" : "acmat_0mat", "pbrMetallicRoughness" : {"baseColorFactor" : [0.6980390000000002, 0.6980390000000002, 0.6980390000000002, 1], "baseColorTexture" : {"index" : 0, "texCoord" : 0}, "metallicFactor" : 0, "roughnessFactor" : 0}, "emissiveFactor" : [0, 0, 0], "alphaMode" : "OPAQUE", "doubleSided" : false}, {"name" : "acmat_1mat", "pbrMetallicRoughness" : {"baseColorFactor" : [0.6980390000000002, 0.6980390000000002, 0.6980390000000002, 1], "baseColorTexture" : {"index" : 1, "texCoord" : 0}, "metallicFactor" : 0, "roughnessFactor" : 0}, "emissiveFactor" : [0, 0, 0], "alphaMode" : "OPAQUE", "doubleSided" : false}, {"name" : "acmat_2mat", "pbrMetallicRoughness" : {"baseColorFactor" : [0.6980390000000002, 0.6980390000000002, 0.6980390000000002, 1], "baseColorTexture" : {"index" : 2, "texCoord" : 0}, "metallicFactor" : 0, "roughnessFactor" : 0}, "emissiveFactor" : [0, 0, 0], "alphaMode" : "OPAQUE", "doubleSided" : false}, {"name" : "acmat_3mat", "pbrMetallicRoughness" : {"baseColorFactor" : [0.6980390000000002, 0.6980390000000002, 0.6980390000000002, 1], "baseColorTexture" : {"index" : 3, "texCoord" : 0}, "metallicFactor" : 0, "roughnessFactor" : 0}, "emissiveFactor" : [0, 0, 0], "alphaMode" : "OPAQUE", "doubleSided" : false}], "meshes" : [{"primitives" : [{"attributes" : {"POSITION" : 1, "TEXCOORD_0" : 2}, "indices" : 0, "material" : 0, "mode" : 4}], "name" : "Object_acmat_0_0mesh"}, {"primitives" : [{"attributes" : {"POSITION" : 4, "TEXCOORD_0" : 5}, "indices" : 3, "material" : 1, "mode" : 4}], "name" : "Object_acmat_1_0mesh"}, {"primitives" : [{"attributes" : {"POSITION" : 7, "TEXCOORD_0" : 8}, "indices" : 6, "material" : 2, "mode" : 4}], "name" : "Object_acmat_2_0mesh"}, {"primitives" : [{"attributes" : {"POSITION" : 10, "TEXCOORD_0" : 11}, "indices" : 9, "material" : 3, "mode" : 4}], "name" : "Object_acmat_3_0mesh"}], "nodes" : [{"mesh" : 0, "name" : "Object_acmat_0_0"}, {"mesh" : 1, "name" : "Object_acmat_1_0"}, {"mesh" : 2, "name" : "Object_acmat_2_0"}, {"mesh" : 3, "name" : "Object_acmat_3_0"}], "samplers" : [{"magFilter" : 9729, "minFilter" : 9729, "wrapS" : 10497, "wrapT" : 10497}, {"magFilter" : 9729, "minFilter" : 9729, "wrapS" : 10497, "wrapT" : 10497}, {"magFilter" : 9729, "minFilter" : 9729, "wrapS" : 10497, "wrapT" : 10497}, {"magFilter" : 9729, "minFilter" : 9729, "wrapS" : 10497, "wrapT" : 10497}], "scene" : 0, "scenes" : [{"nodes" : [0, 1, 2, 3]}], "textures" : [{"sampler" : 0, "source" : 0, "name" : "Haru_Eyes"}, {"sampler" : 1, "source" : 1, "name" : "Haru_Ribbon_01"}, {"sampler" : 2, "source" : 2, "name" : "Haru_Socks_01"}, {"sampler" : 3, "source" : 3, "name" : "Haru"}]}